<?xml version="1.0" encoding="utf-8"?><!-- Uploaded to: SVG Repo, www.svgrepo.com, Generator: SVG Repo Mixer Tools -->
<svg fill="#000000" width="800px" height="800px" viewBox="0 -7.32 143.398 143.398" xmlns="http://www.w3.org/2000/svg">
  <path id="salad_dish" data-name="salad dish" d="M659.79,713.43a18.983,18.983,0,0,0-3.65-6.239c.044-.57.068-1.154.068-1.751,0-.124,0-.233,0-.329a24.873,24.873,0,0,0-8.093-17.986l14.852-15.092.048-.051a9.413,9.413,0,0,0-.435-13.281l-2.738,2.914,2.732-2.922a9.368,9.368,0,0,0-6.4-2.529c-1.541,0-3.425-.023-4.481,1.135l-16.336,17.785a22.393,22.393,0,0,0-16.067-6.779c-.1,0-.232,0-.408,0a22.35,22.35,0,0,0-12.468,4.066,27.205,27.205,0,0,0-13.021-3.3c-.128,0-.275,0-.447,0h0a27.336,27.336,0,0,0-26.723,24.3,22.368,22.368,0,0,0-11.027-2.89c-.092,0-.215,0-.368,0h0a22.48,22.48,0,0,0-22.119,22.464c0,.09,0,.213,0,.371v.016h-3.337c-2.33,0-4.356.1-6.19,2.35-.989,1.215-1.039,4.441-1.039,4.441,0,.082,0,.156.005.223,0,.052-.005.109-.005.168a4.651,4.651,0,0,0,.051.656c.619,20.143,9.566,35.3,22.779,44.92a67.889,67.889,0,0,0,17.509,9.1,11.385,11.385,0,0,0,11.258,9.739h39.614a11.383,11.383,0,0,0,11.258-9.74,67.89,67.89,0,0,0,17.507-9.1c13.212-9.621,22.158-24.779,22.778-44.912,0,0,.14-3.768-.819-5.393C663.362,714.174,661.593,713.617,659.79,713.43Zm-11.583-8.213c0,.07,0,.154,0,.223a17.4,17.4,0,0,1-.215,2.595l-.319,2.123,1.591,1.442a11.031,11.031,0,0,1,1.55,1.732H558.1a10.967,10.967,0,0,1,8.8-4.65h.05l.029,0h.1a11.159,11.159,0,0,1,5.935,1.742l3.067,1.971,2.246-2.871c.136-.174.29-.332.435-.5a11.971,11.971,0,0,1,8.866-4.14h.05c.008,0,.062,0,.149,0A11.961,11.961,0,0,1,595,707.27l2.821,2.1,2.445-2.529a12,12,0,0,1,8.476-3.682l.079,0h.072a12.4,12.4,0,0,1,1.841.153l3.4.509,1.011-3.291A16.907,16.907,0,0,1,630.9,688.6l.868.023a17.567,17.567,0,0,1,1.852.158,16.9,16.9,0,0,1,3.121.741c.084.029.171.05.255.08.446.158.88.342,1.308.537.1.045.2.084.292.131q.642.308,1.256.672c.285.166.579.32.853.5.351.235.686.489,1.017.749A16.86,16.86,0,0,1,648.207,705.217Zm6.806-40.488.176-.168a1.4,1.4,0,0,1,.984-.395,1.337,1.337,0,0,1,.927.363v0a1.41,1.41,0,0,1,.089,1.965L641.273,682.67q-.609-.267-1.235-.5c-.064-.156-.127-.312-.2-.467Zm-61.938,12.343.044,0h.273a19.191,19.191,0,0,1,11.04,3.473l2.647,1.85,2.366-2.2a14.383,14.383,0,0,1,9.608-3.884h.07c.01,0,.064,0,.166,0a14.421,14.421,0,0,1,10.332,4.355,24.889,24.889,0,0,0-20.971,14.5c-.033,0-.069,0-.109,0v0a19.98,19.98,0,0,0-11.559,3.947,19.915,19.915,0,0,0-9.152-2.226c-.089,0-.212,0-.375,0v0a19.951,19.951,0,0,0-12.645,4.822,19.259,19.259,0,0,1-.75-5c0-.109,0-.2,0-.316A19.333,19.333,0,0,1,593.075,677.072ZM540.711,713.19v-.03l0-.039c0-.017,0-.074,0-.176a14.483,14.483,0,0,1,14.25-14.466l.037,0h.2a14.383,14.383,0,0,1,8.218,2.564,19.023,19.023,0,0,0-14.235,12.291h-8.464Zm96.68,46.449a60.372,60.372,0,0,1-17.011,8.552l-.691.215c-.136.043-.275.084-.412.125q-1.327.414-2.686.78l-.421.109q-1.272.335-2.566.629l-.546.123q-1.239.27-2.494.506c-.214.041-.429.082-.645.119-.81.146-1.624.277-2.443.4-.242.035-.482.075-.723.108q-1.2.17-2.417.3c-.259.03-.516.063-.775.09-.8.084-1.615.153-2.426.215-.263.02-.524.045-.787.063-.842.058-1.688.1-2.536.132-.231.01-.461.026-.693.034q-1.614.055-3.239.056c-.049,0-.151-.007-.329-.007h-.071c-.135,0-.235.007-.277.007q-1.628,0-3.243-.056c-.214-.008-.426-.022-.64-.032-.866-.035-1.732-.076-2.593-.134-.244-.018-.485-.041-.728-.061-.833-.062-1.663-.133-2.488-.219-.241-.025-.479-.056-.718-.082q-1.242-.139-2.475-.31c-.223-.031-.446-.067-.67-.1-.838-.127-1.673-.262-2.5-.41l-.582-.107c-.864-.163-1.722-.336-2.574-.526-.151-.033-.3-.066-.455-.1q-1.359-.308-2.7-.661c-.091-.025-.184-.048-.275-.072q-1.469-.395-2.906-.842l-1.006-.314a60.327,60.327,0,0,1-16.944-8.531c-11.292-8.348-18.746-20.594-19.495-38.307H656.885C656.136,739.045,648.683,751.291,637.391,759.639Z" transform="translate(-522.146 -656.164)"/>
</svg>